<?xml version="1.0" encoding="utf-8"?>
<!-- Generator: Adobe Illustrator 19.0.0, SVG Export Plug-In . SVG Version: 6.00 Build 0)  -->
<svg version="1.1" id="Слой_1" xmlns="http://www.w3.org/2000/svg" xmlns:xlink="http://www.w3.org/1999/xlink" x="0px" y="0px"
	 width="595.3px" height="841.9px" viewBox="0 0 595.3 841.9" enable-background="new 0 0 595.3 841.9" xml:space="preserve">
<g>
	<path fill="#65BC46" d="M271.3,391.8l22.4,12c0.5,0.2,0.7,0.7,0.8,1.2l0.1,5.3c0,0.3,0.2,0.7,0.5,0.8l1,0.5c0.3,0.2,0.6,0.2,0.9,0
		l1-0.5c0.3-0.2,0.5-0.5,0.5-0.8l0.1-5.3c0-0.5,0.3-1,0.8-1.2l22.4-12c1-0.5,1-2,0-2.5l-1.1-0.6c-0.4-0.2-0.9-0.2-1.3,0l-18.5,9.9
		c-0.9,0.5-2.1-0.2-2.1-1.3v-6c0-0.5,0.3-1,0.7-1.3l9.6-5.2c1-0.5,1-2,0-2.5l-1.1-0.6c-0.4-0.2-0.9-0.2-1.3,0l-5.9,3
		c-0.9,0.5-2.1-0.2-2.1-1.3v-6.2c0-0.3-0.2-0.7-0.5-0.8l-1.2-0.6c-0.3-0.2-0.6-0.2-0.9,0l-1.2,0.6c-0.3,0.2-0.5,0.5-0.5,0.8v6.2
		c0,1.1-1.1,1.8-2.1,1.3l-5.9-3c-0.4-0.2-0.9-0.2-1.3,0l-1.1,0.6c-1,0.5-1,2,0,2.5l9.6,5.2c0.5,0.2,0.7,0.7,0.7,1.3v6
		c0,1.1-1.1,1.8-2.1,1.3l-18.5-9.9c-0.4-0.2-0.9-0.2-1.3,0l-1.1,0.6C270.3,389.8,270.3,391.3,271.3,391.8z"/>
	<path fill="#65BC46" d="M336.4,438.9v-39.4c0-1.1-1.1-1.8-2.1-1.3l-37.1,19.9c-0.4,0.2-0.9,0.2-1.3,0l-37.1-19.9
		c-0.9-0.5-2.1,0.2-2.1,1.3v39.4c0,0.5,0.3,1,0.8,1.3l38.5,20.5c0.4,0.2,0.9,0.2,1.3,0l38.5-20.5
		C336.1,439.9,336.4,439.4,336.4,438.9z M294.5,453.1c0,1.1-1.1,1.8-2.1,1.3l-30.9-16.5c-0.5-0.2-0.8-0.7-0.8-1.3v-30.4
		c0-1.1,1.1-1.8,2.1-1.3l30.9,16.5c0.5,0.2,0.8,0.7,0.8,1.3V453.1z M332.2,436.6c0,0.5-0.3,1-0.8,1.3l-30.9,16.5
		c-0.9,0.5-2.1-0.2-2.1-1.3v-30.4c0-0.5,0.3-1,0.8-1.3l30.9-16.5c0.9-0.5,2.1,0.2,2.1,1.3V436.6z"/>
	<path fill="#65BC46" d="M305,461.1c0,0-0.1,0-0.1,0c0,0-0.1,0-0.1,0l-1,0.5c-0.1,0-0.1,0.1-0.1,0.3l0.4,4.1l-3.2-2.6
		c0,0-0.1-0.1-0.2-0.1c0,0-0.1,0-0.1,0l-1,0.5c-0.1,0-0.1,0.1-0.1,0.2c0,0.1,0,0.2,0.1,0.2l4.7,3.7c0,0,0.1,0.1,0.2,0.1
		c0,0,0.1,0,0.1,0l1-0.5c0.1,0,0.1-0.1,0.1-0.2l-0.5-5.9C305.2,461.3,305.1,461.2,305,461.1z"/>
	<path fill="#65BC46" d="M312.1,462.4l-0.9-0.1c0,0,0,0,0,0c-0.1,0-0.2,0.1-0.3,0.2c-0.1,0.3-0.2,0.6-0.4,0.8
		c-0.2,0.2-0.4,0.4-0.8,0.6c-0.2,0.1-0.4,0.2-0.6,0.2c-0.1,0-0.1,0-0.2,0c-0.1,0-0.3,0-0.4-0.1c-0.2-0.1-0.4-0.1-0.5-0.3
		c-0.1-0.1-0.2-0.1-0.2-0.2l4-2.1c0.1,0,0.1-0.1,0.1-0.2c0-0.1,0-0.1,0-0.2l-0.1-0.3c-0.2-0.4-0.5-0.8-0.8-1c-0.3-0.3-0.7-0.5-1-0.6
		c-0.2-0.1-0.5-0.1-0.8-0.1c-0.1,0-0.3,0-0.4,0c-0.4,0.1-0.8,0.2-1.2,0.4c-0.4,0.2-0.8,0.5-1.1,0.8c-0.3,0.3-0.5,0.7-0.6,1.1
		c-0.1,0.4-0.2,0.8-0.2,1.2c0,0.4,0.2,0.8,0.4,1.2c0.2,0.4,0.5,0.7,0.8,1c0.3,0.3,0.7,0.5,1.1,0.6c0.3,0.1,0.6,0.1,0.9,0.1
		c0.1,0,0.2,0,0.4,0c0.4,0,0.9-0.2,1.3-0.4c0.5-0.3,1-0.6,1.3-1c0.3-0.4,0.6-0.9,0.7-1.4c0-0.1,0-0.1,0-0.2
		C312.3,462.5,312.2,462.4,312.1,462.4z M307.2,461.7c0.1-0.3,0.4-0.6,0.9-0.9c0.3-0.2,0.6-0.3,0.9-0.3c0.1,0,0.2,0,0.3,0
		c0.3,0.1,0.5,0.2,0.7,0.4l-2.8,1.5C307.1,462.2,307.1,462,307.2,461.7z"/>
	<path fill="#65BC46" d="M316.7,455.1c0-0.1-0.1-0.1-0.2-0.1c0,0-0.1,0-0.1,0l-0.9,0.5c-0.1,0.1-0.2,0.2-0.1,0.3l0.1,0.2
		c-0.2,0-0.4-0.1-0.5-0.1c0,0-0.1,0-0.1,0c-0.2,0-0.5,0.1-0.7,0.1c-0.2,0.1-0.4,0.1-0.6,0.3c-0.4,0.2-0.8,0.5-1.1,0.8
		c-0.3,0.3-0.5,0.7-0.7,1.1c-0.1,0.4-0.2,0.8-0.2,1.2c0,0.4,0.2,0.9,0.4,1.3c0.2,0.4,0.5,0.7,0.8,1c0.3,0.3,0.7,0.4,1.1,0.5
		c0.2,0.1,0.5,0.1,0.7,0.1c0.2,0,0.4,0,0.5,0c0.4-0.1,0.9-0.2,1.3-0.4c0.4-0.2,0.7-0.5,1-0.8c0.2-0.2,0.3-0.4,0.4-0.6l0,0.1
		c0.1,0.2,0.2,0.5,0.3,0.7c0.1,0.2,0.1,0.5,0,0.7c0,0.2-0.2,0.4-0.3,0.6c-0.2,0.2-0.5,0.4-0.8,0.6c-0.4,0.2-0.7,0.3-1.1,0.3
		c-0.1,0-0.1,0-0.2,0c-0.3,0-0.6,0-1-0.1c0,0,0,0-0.1,0c0,0-0.1,0-0.1,0c-0.1,0-0.1,0.1-0.1,0.2l-0.3,1c0,0.1,0,0.1,0,0.2
		c0,0.1,0.1,0.1,0.2,0.1c0.4,0.1,0.7,0.1,1.1,0.1c0.2,0,0.4,0,0.6-0.1c0.5-0.1,1.1-0.3,1.6-0.6c1-0.5,1.6-1.2,1.9-2
		c0.3-0.8,0.2-1.7-0.3-2.6L316.7,455.1z M316.8,459.5c-0.1,0.2-0.2,0.4-0.3,0.6c-0.2,0.2-0.4,0.4-0.7,0.5c-0.2,0.1-0.5,0.2-0.7,0.2
		c-0.1,0-0.2,0-0.2,0c-0.2,0-0.3,0-0.5-0.1c-0.2-0.1-0.4-0.2-0.6-0.3c-0.2-0.1-0.3-0.3-0.4-0.5c-0.1-0.2-0.2-0.5-0.2-0.7
		c0-0.2,0-0.5,0.1-0.7c0.1-0.2,0.2-0.4,0.3-0.6c0.2-0.2,0.4-0.4,0.6-0.5c0.3-0.1,0.5-0.2,0.8-0.3c0.1,0,0.2,0,0.3,0
		c0.1,0,0.3,0,0.4,0.1c0.2,0.1,0.4,0.2,0.6,0.3c0.2,0.1,0.3,0.3,0.5,0.6c0.1,0.2,0.2,0.4,0.2,0.6C316.9,459,316.9,459.2,316.8,459.5
		z"/>
	<path fill="#65BC46" d="M318.9,453.9c0-0.1-0.1-0.1-0.2-0.1c0,0-0.1,0-0.1,0l-0.9,0.5c-0.1,0-0.1,0.1-0.1,0.2c0,0.1,0,0.1,0,0.2
		l2.6,4.8c0,0.1,0.1,0.1,0.2,0.1c0,0,0.1,0,0.1,0l0.9-0.5c0.1,0,0.1-0.1,0.1-0.2c0-0.1,0-0.1,0-0.2L318.9,453.9z"/>
	<path fill="#65BC46" d="M317.5,451.5c-0.1,0-0.2,0-0.3,0c-0.2,0-0.3,0-0.5,0.1c-0.2,0.1-0.4,0.3-0.5,0.6c-0.1,0.2-0.1,0.5,0,0.7
		c0.1,0.2,0.3,0.4,0.6,0.5c0.1,0,0.2,0,0.2,0c0.2,0,0.3,0,0.5-0.1c0.2-0.1,0.4-0.3,0.5-0.6c0.1-0.2,0.1-0.5-0.1-0.7
		C318,451.7,317.8,451.6,317.5,451.5z"/>
	<path fill="#65BC46" d="M323.9,447.5c0-0.1-0.1-0.1-0.2-0.1c0,0-0.1,0-0.1,0c0,0-0.1,0-0.1,0l-0.9,0.5c-0.1,0.1-0.2,0.2-0.1,0.3
		l1.7,3.2c-0.2,0-0.3,0-0.5,0c-0.1,0-0.1,0-0.2,0c-0.4,0-0.9,0.2-1.3,0.4c-0.4,0.2-0.8,0.5-1.1,0.9c-0.3,0.3-0.5,0.7-0.6,1.1
		c-0.1,0.4-0.2,0.8-0.2,1.2c0,0.4,0.2,0.8,0.4,1.2c0.2,0.4,0.5,0.7,0.8,1c0.3,0.3,0.7,0.4,1.1,0.6c0.3,0.1,0.5,0.1,0.8,0.1
		c0.1,0,0.3,0,0.4,0c0.4,0,0.8-0.2,1.2-0.4c0.5-0.3,0.9-0.6,1.2-1c0.1-0.2,0.2-0.4,0.3-0.6l0.1,0.3c0,0.1,0.1,0.1,0.2,0.1
		c0,0,0.1,0,0.1,0c0,0,0.1,0,0.1,0l0.9-0.5c0.1,0,0.1-0.1,0.1-0.2c0-0.1,0-0.1,0-0.2L323.9,447.5z M325.6,454.9
		c-0.1,0.2-0.2,0.4-0.3,0.6c-0.2,0.2-0.4,0.4-0.6,0.5c-0.3,0.1-0.5,0.2-0.8,0.2c-0.1,0-0.1,0-0.2,0c-0.2,0-0.3,0-0.5-0.1
		c-0.2-0.1-0.4-0.2-0.6-0.3c-0.2-0.1-0.3-0.3-0.4-0.6c-0.1-0.2-0.2-0.5-0.2-0.7c0-0.2,0-0.4,0.1-0.7c0.1-0.2,0.2-0.4,0.3-0.6
		c0.2-0.2,0.4-0.4,0.6-0.5c0.3-0.1,0.5-0.2,0.8-0.2c0.1,0,0.1,0,0.2,0c0.2,0,0.3,0,0.5,0.1c0.2,0.1,0.4,0.2,0.6,0.3
		c0.2,0.1,0.3,0.3,0.4,0.6c0.1,0.2,0.2,0.5,0.2,0.7C325.6,454.5,325.6,454.7,325.6,454.9z"/>
	<path fill="#65BC46" d="M333.3,451.9c-0.1-0.1-0.2-0.3-0.2-0.4l-1.1-2.1c-0.4-0.7-0.9-1.2-1.5-1.4c-0.2,0-0.3-0.1-0.5-0.1
		c-0.5,0-1,0.2-1.6,0.5c-0.4,0.2-0.8,0.5-1.1,0.8c-0.3,0.3-0.6,0.7-0.7,1.2c0,0.1,0,0.1,0,0.2c0,0.1,0.1,0.1,0.2,0.1l0.8,0.2
		c0,0,0,0,0.1,0c0.1,0,0.2-0.1,0.2-0.2c0.1-0.3,0.3-0.5,0.5-0.7c0.2-0.2,0.5-0.4,0.7-0.5c0.3-0.2,0.6-0.2,0.8-0.2c0.1,0,0.1,0,0.2,0
		c0.2,0,0.4,0.2,0.5,0.4l-0.1,0.1c-0.3,0.2-0.7,0.4-1.1,0.6c-0.4,0.2-0.7,0.5-1,0.8c-0.3,0.3-0.5,0.7-0.6,1.1
		c-0.1,0.4-0.1,0.9,0.2,1.3c0.1,0.3,0.3,0.5,0.6,0.6c0.2,0.1,0.5,0.2,0.8,0.3c0.1,0,0.2,0,0.2,0c0.2,0,0.4,0,0.6-0.1
		c0.3-0.1,0.6-0.2,0.9-0.3c0.4-0.2,0.8-0.5,1-0.9c0.1-0.2,0.2-0.3,0.3-0.5c0.1,0.1,0.1,0.2,0.2,0.2c0.1,0.1,0.1,0.1,0.2,0.1
		c0,0,0.1,0,0.1,0l0.9-0.5c0.1,0,0.1-0.1,0.1-0.2c0-0.1,0-0.2-0.1-0.2C333.4,452.2,333.3,452.1,333.3,451.9z M331.2,452.1
		c0,0.2-0.1,0.3-0.3,0.5c-0.1,0.2-0.3,0.3-0.5,0.4c-0.3,0.1-0.5,0.2-0.8,0.2l0,0c-0.1,0-0.3,0-0.5-0.3c-0.1-0.2-0.1-0.5,0.1-0.7
		c0.2-0.3,0.6-0.6,1.2-0.9l0.7-0.3l0,0.1c0.1,0.2,0.1,0.3,0.2,0.5C331.2,451.8,331.2,452,331.2,452.1z"/>
	<path fill="#65BC46" d="M333,446.4c0-0.1-0.1-0.1-0.2-0.1c0,0-0.1,0-0.1,0l-0.9,0.5c-0.1,0-0.1,0.1-0.1,0.2c0,0.1,0,0.1,0,0.2
		l2.6,4.8c0,0.1,0.1,0.1,0.2,0.1c0,0,0.1,0,0.1,0l0.9-0.5c0.1,0,0.1-0.1,0.1-0.2c0-0.1,0-0.1,0-0.2L333,446.4z"/>
	<path fill="#65BC46" d="M331.6,444c-0.1,0-0.2,0-0.3,0c-0.2,0-0.3,0-0.5,0.1c-0.2,0.1-0.4,0.3-0.5,0.6c-0.1,0.3-0.1,0.5,0,0.7
		c0.1,0.2,0.3,0.4,0.6,0.5c0.1,0,0.2,0,0.2,0c0.2,0,0.3,0,0.5-0.1c0.2-0.1,0.4-0.3,0.5-0.6c0.1-0.2,0.1-0.5-0.1-0.7
		C332.1,444.2,331.9,444,331.6,444z"/>
	<path fill="#65BC46" d="M337.8,450.1l-1.3-2.4c-0.3-0.5-0.4-1-0.3-1.3c0.1-0.4,0.3-0.7,0.8-0.9c0.1-0.1,0.3-0.1,0.4-0.2
		c0.1,0,0.1-0.1,0.2-0.1c0-0.1,0-0.2,0-0.2l-0.4-0.8c0-0.1-0.1-0.2-0.2-0.2c0,0,0,0,0,0c-0.1,0-0.2,0-0.3,0.1
		c-0.1,0-0.1,0.1-0.2,0.1c-0.2,0.1-0.4,0.3-0.6,0.4c-0.2,0.2-0.3,0.3-0.4,0.5c-0.1,0.1-0.2,0.3-0.2,0.4c0-0.1-0.1-0.1-0.1-0.2
		c0-0.1-0.1-0.1-0.2-0.1c0,0-0.1,0-0.1,0c0,0-0.1,0-0.1,0l-0.8,0.4c-0.1,0-0.1,0.1-0.1,0.2c0,0.1,0,0.1,0,0.2
		c0.1,0.2,0.2,0.3,0.3,0.5c0.1,0.2,0.2,0.4,0.3,0.6l2,3.7c0,0.1,0.1,0.1,0.2,0.1c0,0,0.1,0,0.1,0l0.9-0.5c0.1,0,0.1-0.1,0.1-0.2
		C337.8,450.2,337.8,450.2,337.8,450.1z"/>
</g>
</svg>
